<svg width="295" height="76" viewBox="0 0 295 76" fill="none" xmlns="http://www.w3.org/2000/svg">
<path d="M115.228 30.1435C114.468 26.1422 111.527 24.0251 106.965 24.0251C102.744 24.0251 100.083 26.0451 100.083 28.8421C100.083 31.6391 102.444 32.4161 105.585 33.1542L112.067 34.6498C118.149 36.126 124.391 37.6799 124.391 46.4011C124.391 54.3065 117.029 57.9193 108.226 57.9193C98.6025 57.9193 91.7202 53.5102 90.5798 45.2357L98.7626 44.4393C99.3828 49.8779 103.504 51.8009 108.326 51.8009C112.767 51.8009 115.968 49.9168 115.968 46.673C115.968 43.4293 113.408 42.5164 109.426 41.5646L103.004 39.9913C97.6022 38.6511 91.8803 36.7864 91.8803 29.2695C91.8803 21.7525 98.5425 18.0037 107.225 18.0037C115.908 18.0037 121.69 22.141 123.311 29.6191L115.228 30.1435ZM157.162 48.6543C156.022 52.675 152.141 57.7251 142.898 57.7251C133.654 57.7251 128.273 51.9563 128.273 42.9437C128.273 33.9311 133.754 28.0652 142.857 28.0652C151.961 28.0652 158.143 33.8923 157.402 44.4976H136.135C136.235 49.1787 138.836 52.4224 142.898 52.4224C146.959 52.4224 148.739 49.8779 149.3 48.0327L157.162 48.6543ZM142.857 33.2707C138.756 33.2707 136.515 36.1649 136.235 39.6611H149.54C149.26 36.1649 146.999 33.2707 142.857 33.2707ZM175.689 52.1117C179.87 52.1117 181.451 49.1204 182.091 46.6148L189.913 47.4888C188.693 52.2088 184.852 57.7251 175.689 57.7251C166.525 57.7251 161.084 51.9951 161.084 42.9049C161.084 33.8146 166.666 28.0458 175.689 28.0458C184.712 28.0458 188.393 33.6009 189.453 37.0001L181.951 38.6122C181.31 36.5727 179.73 33.6786 175.689 33.6786C171.647 33.6786 168.946 36.8058 168.946 42.9049C168.946 49.0039 171.587 52.1117 175.689 52.1117ZM207.699 51.2376C208.48 51.2376 209.46 51.2376 210.16 51.1988V57.0647C209.42 57.1424 206.999 57.1812 205.099 57.1812C199.157 57.1812 196.576 55.9381 196.576 50.3247V33.7757H191.934V28.7256H196.576V20.8202H204.298V28.7256H210.38V33.7757H204.298V48.46C204.298 50.9657 205.299 51.2376 207.699 51.2376ZM242.411 42.9049C242.411 51.9757 236.729 57.7251 227.526 57.7251C218.323 57.7251 212.601 51.9951 212.601 42.9049C212.601 33.8146 218.263 28.0458 227.526 28.0458C236.709 28.0652 242.411 33.8146 242.411 42.9049ZM234.528 42.9049C234.528 36.8253 231.788 33.6786 227.506 33.6786C223.225 33.6786 220.444 36.8058 220.444 42.9049C220.444 49.0039 223.185 52.0922 227.506 52.0922C231.828 52.0922 234.528 49.0039 234.528 42.9049ZM254.675 33.0571H254.895C256.436 30.1435 259.377 28.0458 263.678 28.0458C264.399 28.0458 265.179 28.1429 265.719 28.2789V35.2908C264.999 35.1937 263.818 35.0771 262.678 35.0771C258.276 35.0771 255.015 36.9612 255.015 42.7495V57.0647H247.293V28.7256H254.675V33.0571ZM287.086 37.2914C286.466 34.4944 284.145 33.0376 281.324 33.0376C278.503 33.0376 276.563 34.2225 276.563 36.3979C276.563 38.4374 278.683 39.0201 281.684 39.5057L284.665 39.9525C289.887 40.8071 294.969 42.3222 294.969 48.6543C294.969 54.9864 289.167 57.7057 281.564 57.7057C273.962 57.7057 268.68 54.3065 267.68 48.7902L274.882 47.7996C275.582 51.1793 278.043 52.7332 281.664 52.7332C284.925 52.7332 287.106 51.3153 287.106 48.9456C287.106 46.945 284.926 46.1292 281.624 45.6047L278.423 45.0997C273.742 44.3616 268.8 42.7495 268.8 36.6893C268.8 31.2895 274.462 28.0458 281.304 28.0458C288.147 28.0458 293.268 31.3866 294.189 36.3202L287.086 37.2914Z" fill="#9E0142"/>
<mask id="mask0_2346_2116" style="mask-type:luminance" maskUnits="userSpaceOnUse" x="90" y="18" width="205" height="40">
<path d="M115.229 30.1434C114.468 26.1421 111.527 24.0249 106.966 24.0249C102.744 24.0249 100.084 26.045 100.084 28.842C100.084 31.639 102.444 32.4159 105.585 33.154L112.068 34.6497C118.15 36.1259 124.392 37.6798 124.392 46.401C124.392 54.3064 117.029 57.9192 108.226 57.9192C98.603 57.9192 91.7207 53.51 90.5803 45.2356L98.7631 44.4392C99.3833 49.8778 103.505 51.8008 108.326 51.8008C112.768 51.8008 115.969 49.9167 115.969 46.6729C115.969 43.4292 113.408 42.5162 109.427 41.5645L103.005 39.9912C97.6027 38.6509 91.8808 36.7863 91.8808 29.2693C91.8808 21.7524 98.543 18.0036 107.226 18.0036C115.909 18.0036 121.691 22.1408 123.311 29.6189L115.229 30.1434ZM157.163 48.6541C156.022 52.6748 152.141 57.725 142.898 57.725C133.655 57.725 128.273 51.9561 128.273 42.9436C128.273 33.931 133.755 28.065 142.858 28.065C151.961 28.065 158.143 33.8922 157.403 44.4975H136.136C136.236 49.1786 138.837 52.4223 142.898 52.4223C146.959 52.4223 148.74 49.8778 149.3 48.0326L157.163 48.6541ZM142.858 33.2706C138.757 33.2706 136.516 36.1647 136.236 39.661H149.54C149.26 36.1647 146.999 33.2706 142.858 33.2706ZM175.689 52.1115C179.87 52.1115 181.451 49.1203 182.091 46.6146L189.914 47.4887C188.693 52.2087 184.852 57.725 175.689 57.725C166.526 57.725 161.084 51.995 161.084 42.9047C161.084 33.8145 166.666 28.0456 175.689 28.0456C184.712 28.0456 188.393 33.6008 189.454 36.9999L181.951 38.6121C181.311 36.5726 179.73 33.6785 175.689 33.6785C171.648 33.6785 168.947 36.8057 168.947 42.9047C168.947 49.0037 171.588 52.1115 175.689 52.1115ZM207.7 51.2375C208.48 51.2375 209.46 51.2375 210.161 51.1986V57.0646C209.42 57.1423 207 57.1811 205.099 57.1811C199.157 57.1811 196.576 55.938 196.576 50.3246V33.7756H191.935V28.7255H196.576V20.82H204.299V28.7255H210.381V33.7756H204.299V48.4599C204.299 50.9655 205.299 51.2375 207.7 51.2375ZM242.412 42.9047C242.412 51.9756 236.73 57.725 227.527 57.725C218.323 57.725 212.602 51.995 212.602 42.9047C212.602 33.8145 218.263 28.0456 227.527 28.0456C236.71 28.0651 242.412 33.8145 242.412 42.9047ZM234.529 42.9047C234.529 36.8251 231.788 33.6785 227.507 33.6785C223.225 33.6785 220.444 36.8057 220.444 42.9047C220.444 49.0037 223.185 52.0921 227.507 52.0921C231.828 52.0921 234.529 49.0037 234.529 42.9047ZM254.676 33.0569H254.896C256.436 30.1434 259.377 28.0456 263.679 28.0456C264.399 28.0456 265.179 28.1428 265.719 28.2787V35.2906C264.999 35.1935 263.819 35.077 262.678 35.077C258.277 35.077 255.016 36.9611 255.016 42.7493V57.0646H247.293V28.7255H254.676V33.0569ZM287.087 37.2913C286.466 34.4943 284.146 33.0375 281.325 33.0375C278.504 33.0375 276.563 34.2224 276.563 36.3978C276.563 38.4373 278.684 39.02 281.685 39.5056L284.666 39.9523C289.888 40.807 294.969 42.322 294.969 48.6541C294.969 54.9862 289.167 57.7055 281.565 57.7055C273.962 57.7055 268.68 54.3064 267.68 48.7901L274.883 47.7995C275.583 51.1792 278.044 52.7331 281.665 52.7331C284.926 52.7331 287.107 51.3152 287.107 48.9455C287.107 46.9448 284.926 46.129 281.625 45.6046L278.424 45.0996C273.742 44.3615 268.801 42.7493 268.801 36.6892C268.801 31.2894 274.462 28.0456 281.305 28.0456C288.147 28.0456 293.269 31.3865 294.189 36.3201L287.087 37.2913Z" fill="white"/>
</mask>
<g mask="url(#mask0_2346_2116)">
<path d="M355.45 2.27005H38.1227V83.8105H355.45V2.27005Z" fill="#9E0142"/>
</g>
<path d="M115.228 30.1435C114.468 26.1422 111.527 24.0251 106.965 24.0251C102.744 24.0251 100.083 26.0451 100.083 28.8421C100.083 31.6391 102.444 32.4161 105.585 33.1542L112.067 34.6498C118.149 36.126 124.391 37.6799 124.391 46.4011C124.391 54.3065 117.029 57.9193 108.226 57.9193C98.6025 57.9193 91.7202 53.5102 90.5798 45.2357L98.7626 44.4393C99.3828 49.8779 103.504 51.8009 108.326 51.8009C112.767 51.8009 115.968 49.9168 115.968 46.673C115.968 43.4293 113.408 42.5164 109.426 41.5646L103.004 39.9913C97.6022 38.6511 91.8803 36.7864 91.8803 29.2695C91.8803 21.7525 98.5425 18.0037 107.225 18.0037C115.908 18.0037 121.69 22.141 123.311 29.6191L115.228 30.1435ZM157.162 48.6543C156.022 52.675 152.141 57.7251 142.898 57.7251C133.654 57.7251 128.273 51.9563 128.273 42.9437C128.273 33.9311 133.754 28.0652 142.857 28.0652C151.961 28.0652 158.143 33.8923 157.402 44.4976H136.135C136.235 49.1787 138.836 52.4224 142.898 52.4224C146.959 52.4224 148.739 49.8779 149.3 48.0327L157.162 48.6543ZM142.857 33.2707C138.756 33.2707 136.515 36.1649 136.235 39.6611H149.54C149.26 36.1649 146.999 33.2707 142.857 33.2707ZM175.689 52.1117C179.87 52.1117 181.451 49.1204 182.091 46.6148L189.913 47.4888C188.693 52.2088 184.852 57.7251 175.689 57.7251C166.525 57.7251 161.084 51.9951 161.084 42.9049C161.084 33.8146 166.666 28.0458 175.689 28.0458C184.712 28.0458 188.393 33.6009 189.453 37.0001L181.951 38.6122C181.31 36.5727 179.73 33.6786 175.689 33.6786C171.647 33.6786 168.946 36.8058 168.946 42.9049C168.946 49.0039 171.587 52.1117 175.689 52.1117ZM207.699 51.2376C208.48 51.2376 209.46 51.2376 210.16 51.1988V57.0647C209.42 57.1424 206.999 57.1812 205.099 57.1812C199.157 57.1812 196.576 55.9381 196.576 50.3247V33.7757H191.934V28.7256H196.576V20.8202H204.298V28.7256H210.38V33.7757H204.298V48.46C204.298 50.9657 205.299 51.2376 207.699 51.2376ZM242.411 42.9049C242.411 51.9757 236.729 57.7251 227.526 57.7251C218.323 57.7251 212.601 51.9951 212.601 42.9049C212.601 33.8146 218.263 28.0458 227.526 28.0458C236.709 28.0652 242.411 33.8146 242.411 42.9049ZM234.528 42.9049C234.528 36.8253 231.788 33.6786 227.506 33.6786C223.225 33.6786 220.444 36.8058 220.444 42.9049C220.444 49.0039 223.185 52.0922 227.506 52.0922C231.828 52.0922 234.528 49.0039 234.528 42.9049ZM254.675 33.0571H254.895C256.436 30.1435 259.377 28.0458 263.678 28.0458C264.399 28.0458 265.179 28.1429 265.719 28.2789V35.2908C264.999 35.1937 263.818 35.0771 262.678 35.0771C258.276 35.0771 255.015 36.9612 255.015 42.7495V57.0647H247.293V28.7256H254.675V33.0571ZM287.086 37.2914C286.466 34.4944 284.145 33.0376 281.324 33.0376C278.503 33.0376 276.563 34.2225 276.563 36.3979C276.563 38.4374 278.683 39.0201 281.684 39.5057L284.665 39.9525C289.887 40.8071 294.969 42.3222 294.969 48.6543C294.969 54.9864 289.167 57.7057 281.564 57.7057C273.962 57.7057 268.68 54.3065 267.68 48.7902L274.882 47.7996C275.582 51.1793 278.043 52.7332 281.664 52.7332C284.925 52.7332 287.106 51.3153 287.106 48.9456C287.106 46.945 284.926 46.1292 281.624 45.6047L278.423 45.0997C273.742 44.3616 268.8 42.7495 268.8 36.6893C268.8 31.2895 274.462 28.0458 281.304 28.0458C288.147 28.0458 293.268 31.3866 294.189 36.3202L287.086 37.2914Z" fill="#9E0142"/>
<mask id="mask1_2346_2116" style="mask-type:luminance" maskUnits="userSpaceOnUse" x="90" y="18" width="205" height="40">
<path d="M115.229 30.1434C114.468 26.1421 111.527 24.0249 106.966 24.0249C102.744 24.0249 100.084 26.045 100.084 28.842C100.084 31.639 102.444 32.4159 105.585 33.154L112.068 34.6497C118.15 36.1259 124.392 37.6798 124.392 46.401C124.392 54.3064 117.029 57.9192 108.226 57.9192C98.603 57.9192 91.7207 53.51 90.5803 45.2356L98.7631 44.4392C99.3833 49.8778 103.505 51.8008 108.326 51.8008C112.768 51.8008 115.969 49.9167 115.969 46.6729C115.969 43.4292 113.408 42.5162 109.427 41.5645L103.005 39.9912C97.6027 38.6509 91.8808 36.7863 91.8808 29.2693C91.8808 21.7524 98.543 18.0036 107.226 18.0036C115.909 18.0036 121.691 22.1408 123.311 29.6189L115.229 30.1434ZM157.163 48.6541C156.022 52.6748 152.141 57.725 142.898 57.725C133.655 57.725 128.273 51.9561 128.273 42.9436C128.273 33.931 133.755 28.065 142.858 28.065C151.961 28.065 158.143 33.8922 157.403 44.4975H136.136C136.236 49.1786 138.837 52.4223 142.898 52.4223C146.959 52.4223 148.74 49.8778 149.3 48.0326L157.163 48.6541ZM142.858 33.2706C138.757 33.2706 136.516 36.1647 136.236 39.661H149.54C149.26 36.1647 146.999 33.2706 142.858 33.2706ZM175.689 52.1115C179.87 52.1115 181.451 49.1203 182.091 46.6146L189.914 47.4887C188.693 52.2087 184.852 57.725 175.689 57.725C166.526 57.725 161.084 51.995 161.084 42.9047C161.084 33.8145 166.666 28.0456 175.689 28.0456C184.712 28.0456 188.393 33.6008 189.454 36.9999L181.951 38.6121C181.311 36.5726 179.73 33.6785 175.689 33.6785C171.648 33.6785 168.947 36.8057 168.947 42.9047C168.947 49.0037 171.588 52.1115 175.689 52.1115ZM207.7 51.2375C208.48 51.2375 209.46 51.2375 210.161 51.1986V57.0646C209.42 57.1423 207 57.1811 205.099 57.1811C199.157 57.1811 196.576 55.938 196.576 50.3246V33.7756H191.935V28.7255H196.576V20.82H204.299V28.7255H210.381V33.7756H204.299V48.4599C204.299 50.9655 205.299 51.2375 207.7 51.2375ZM242.412 42.9047C242.412 51.9756 236.73 57.725 227.527 57.725C218.323 57.725 212.602 51.995 212.602 42.9047C212.602 33.8145 218.263 28.0456 227.527 28.0456C236.71 28.0651 242.412 33.8145 242.412 42.9047ZM234.529 42.9047C234.529 36.8251 231.788 33.6785 227.507 33.6785C223.225 33.6785 220.444 36.8057 220.444 42.9047C220.444 49.0037 223.185 52.0921 227.507 52.0921C231.828 52.0921 234.529 49.0037 234.529 42.9047ZM254.676 33.0569H254.896C256.436 30.1434 259.377 28.0456 263.679 28.0456C264.399 28.0456 265.179 28.1428 265.719 28.2787V35.2906C264.999 35.1935 263.819 35.077 262.678 35.077C258.277 35.077 255.016 36.9611 255.016 42.7493V57.0646H247.293V28.7255H254.676V33.0569ZM287.087 37.2913C286.466 34.4943 284.146 33.0375 281.325 33.0375C278.504 33.0375 276.563 34.2224 276.563 36.3978C276.563 38.4373 278.684 39.02 281.685 39.5056L284.666 39.9523C289.888 40.807 294.969 42.322 294.969 48.6541C294.969 54.9862 289.167 57.7055 281.565 57.7055C273.962 57.7055 268.68 54.3064 267.68 48.7901L274.883 47.7995C275.583 51.1792 278.044 52.7331 281.665 52.7331C284.926 52.7331 287.107 51.3152 287.107 48.9455C287.107 46.9448 284.926 46.129 281.625 45.6046L278.424 45.0996C273.742 44.3615 268.801 42.7493 268.801 36.6892C268.801 31.2894 274.462 28.0456 281.305 28.0456C288.147 28.0456 293.269 31.3865 294.189 36.3201L287.087 37.2913Z" fill="white"/>
</mask>
<g mask="url(#mask1_2346_2116)">
<path d="M329.003 5.70844H56.7715V83.8109H329.003V5.70844Z" fill="#9E0142"/>
</g>
<path opacity="0.75" d="M64.5888 28.8575H0.26709V47.0748H64.5888V28.8575Z" fill="url(#paint0_linear_2346_2116)"/>
<path d="M64.5889 19.7536L0.286865 29.1918V10.9841L64.5889 1.53633V19.7536Z" fill="url(#paint1_linear_2346_2116)"/>
<path d="M64.5762 65.2825L0.27417 74.7303V56.513L64.5762 47.0748V65.2825Z" fill="url(#paint2_linear_2346_2116)"/>
<path d="M2.0579 49.6732H1.16249C0.670513 49.6732 0.26709 49.2815 0.26709 48.8039V8.91113C0.26709 8.43349 0.670513 8.04182 1.16249 8.04182H2.0579C2.54988 8.04182 2.95331 8.43349 2.95331 8.91113V48.8039C2.95331 49.2815 2.54988 49.6732 2.0579 49.6732Z" fill="#E0003B"/>
<path d="M63.6932 67.8811H62.7977C62.3058 67.8811 61.9023 67.4894 61.9023 67.0118V27.1191C61.9023 26.6414 62.3058 26.2498 62.7977 26.2498H63.6932C64.1851 26.2498 64.5886 26.6414 64.5886 27.1191V67.0118C64.5886 67.499 64.1851 67.8811 63.6932 67.8811Z" fill="#F76400"/>
<path d="M2.0579 75.6858H1.16249C0.670513 75.6858 0.26709 75.2942 0.26709 74.8165V55.7395C0.26709 55.2618 0.670513 54.8702 1.16249 54.8702H2.0579C2.54988 54.8702 2.95331 55.2618 2.95331 55.7395V74.8165C2.95331 75.3037 2.54988 75.6858 2.0579 75.6858Z" fill="#F76400"/>
<path d="M63.6932 21.0528H62.7977C62.3058 21.0528 61.9023 20.6611 61.9023 20.1835V1.10643C61.9023 0.628789 62.3058 0.237122 62.7977 0.237122H63.6932C64.1851 0.237122 64.5886 0.628789 64.5886 1.10643V20.1835C64.5886 20.6611 64.1851 21.0528 63.6932 21.0528Z" fill="#E0003B"/>
<defs>
<linearGradient id="paint0_linear_2346_2116" x1="0.26709" y1="37.9662" x2="64.5888" y2="37.9662" gradientUnits="userSpaceOnUse">
<stop stop-color="#E11D48"/>
<stop offset="0.25" stop-color="#E62D3E"/>
<stop offset="0.73" stop-color="#F25826"/>
<stop offset="1" stop-color="#F97316"/>
</linearGradient>
<linearGradient id="paint1_linear_2346_2116" x1="0.286865" y1="15.3641" x2="64.5889" y2="15.3641" gradientUnits="userSpaceOnUse">
<stop stop-color="#E11D48" stop-opacity="0.7"/>
<stop offset="1" stop-color="#E11D48"/>
</linearGradient>
<linearGradient id="paint2_linear_2346_2116" x1="0.27417" y1="60.9026" x2="64.5762" y2="60.9026" gradientUnits="userSpaceOnUse">
<stop stop-color="#F97316"/>
<stop offset="1" stop-color="#F97316" stop-opacity="0.7"/>
</linearGradient>
</defs>
</svg>
